<svg width="654" height="447" viewBox="0 0 654 447" fill="none" xmlns="http://www.w3.org/2000/svg">
<path d="M522.987 5.67832C425.892 -24.0205 383.655 71.7694 236.721 85.7085C147.399 94.1042 114.454 69.6181 63.6773 104.402C30.4851 127.104 -1.87842 170.113 0.0850299 218.052C1.97169 261.861 31.5906 291.783 47.5016 307.857C99.3958 360.282 130.793 295.282 198.468 351.098C230.565 377.594 238.855 331.603 275.468 351.098C294.657 361.391 319.886 358.772 356.468 356.098C367.595 355.282 407.161 388.655 436.468 356.098C474.437 314.009 464.65 346.804 501.651 282.884C527.427 238.458 552.247 235.564 573.143 211.311C583.245 199.478 587.979 188.447 591.565 180.309C594.404 173.887 623.656 104.709 589.874 52.1988C569.272 20.4155 534.731 9.33909 522.987 5.67832Z" fill="#D3E9EE"/>
<path d="M531.898 322.615C531.898 322.615 549.773 209.794 516.947 165.655C484.121 121.55 446.245 146.226 405.711 146.16C374.281 146.093 336.471 126.066 297.864 127.594C294.508 127.727 291.153 127.727 287.797 127.594C249.19 126.066 211.38 146.126 179.95 146.16C139.416 146.226 101.54 121.55 68.7138 165.655C35.8878 209.761 53.7627 322.615 53.7627 322.615H531.931H531.898Z" fill="#6F9AFC"/>
<path d="M597.251 334.372C597.251 334.372 615.159 321.22 601.072 285.152C587.018 249.084 562.133 265.524 570.638 283.359C576.187 294.95 605.69 302.755 597.251 334.339V334.372Z" fill="#115A61"/>
<path d="M597.252 334.372C597.252 334.372 617.851 325.306 620.077 305.877C622.303 286.447 605.923 267.018 632.038 237.858C658.119 208.698 608.049 201.624 599.212 248.088C589.244 300.496 614.628 303.319 597.252 334.372Z" fill="#23686F"/>
<path d="M586.42 407.904H613.598L636.789 336.83C637.187 335.601 636.29 334.372 634.995 334.372H569.343C568.113 334.372 567.216 335.535 567.515 336.73L586.387 407.904H586.42Z" fill="#F5BF6A"/>
<path d="M561.834 360.577C561.834 360.577 544.557 297.673 546.484 265.823C548.411 233.972 561.834 336.033 561.834 336.033C561.834 336.033 565.023 222.481 571.868 215.971C578.712 209.462 567.98 329.889 567.98 329.889C567.98 329.889 580.639 217.499 593.696 206.772C606.753 196.044 574.359 330.287 574.359 330.287C574.359 330.287 597.152 256.258 601.371 255.494C605.591 254.73 580.639 332.38 580.639 332.38C580.639 332.38 600.142 278.111 605.358 278.111C610.574 278.111 575.855 360.577 575.855 360.577H561.834Z" fill="#2E365C"/>
<path d="M560.837 408.07H578.712L593.663 362.204C594.061 360.975 593.164 359.746 591.869 359.746H550.437C549.208 359.746 548.311 360.909 548.61 362.104L560.804 408.07H560.837Z" fill="#EECFAF"/>
<path d="M599.211 333.608C599.211 333.608 634.862 323.778 638.417 295.647C642.005 267.516 655.095 268.812 653.268 255.228C651.441 241.677 627.486 244.799 624.063 274.458C620.774 303.153 616.754 322.947 599.178 333.575L599.211 333.608Z" fill="#23686F"/>
<path d="M627.818 347.226H584.659C584.194 347.226 583.829 346.86 583.829 346.395C583.829 345.93 584.194 345.565 584.659 345.565H627.818C628.283 345.565 628.649 345.93 628.649 346.395C628.649 346.86 628.283 347.226 627.818 347.226Z" fill="#E48C53"/>
<path d="M633.2 275.288C633.2 275.288 633.067 275.288 633.001 275.288C632.569 275.155 632.303 274.724 632.403 274.259C633.865 268.812 635.293 265.524 639.347 261.572C639.679 261.273 640.211 261.273 640.51 261.572C640.842 261.904 640.809 262.435 640.51 262.734C637.054 266.088 635.592 268.745 633.998 274.657C633.898 275.022 633.566 275.288 633.2 275.288Z" fill="#115A61"/>
<path d="M622.336 311.689C622.17 311.689 621.97 311.622 621.804 311.522C621.439 311.224 621.372 310.725 621.671 310.36C626.223 304.614 627.652 297.042 629.047 289.702L629.545 287.045C629.645 286.58 630.044 286.315 630.509 286.381C630.974 286.481 631.24 286.912 631.173 287.344L630.675 289.968C629.246 297.507 627.785 305.279 622.967 311.323C622.801 311.522 622.568 311.622 622.302 311.622L622.336 311.689Z" fill="#115A61"/>
<path d="M611.937 312.751C611.937 312.751 611.804 312.751 611.737 312.751C611.305 312.652 611.006 312.22 611.106 311.755C613.166 302.721 611.272 293.488 609.445 284.521C608.116 278.011 606.887 271.867 607.053 265.889C607.551 249.848 614.728 234.304 625.359 226.234C625.725 225.968 626.257 226.035 626.522 226.4C626.788 226.765 626.722 227.297 626.356 227.562C616.123 235.334 609.179 250.412 608.714 265.955C608.548 271.768 609.777 277.812 611.073 284.222C612.933 293.355 614.86 302.754 612.701 312.153C612.601 312.552 612.269 312.784 611.903 312.784L611.937 312.751Z" fill="#115A61"/>
<path d="M608.647 322.084C608.481 322.084 608.315 322.018 608.149 321.918C607.783 321.652 607.684 321.121 607.983 320.755C609.013 319.327 609.876 317.8 610.541 316.172C610.707 315.74 611.205 315.541 611.637 315.707C612.069 315.873 612.269 316.371 612.102 316.803C611.371 318.563 610.441 320.224 609.312 321.752C609.145 321.984 608.913 322.084 608.647 322.084Z" fill="#115A61"/>
<path d="M584.659 368.05H555.887C555.422 368.05 555.056 367.684 555.056 367.219C555.056 366.754 555.422 366.389 555.887 366.389H584.659C585.124 366.389 585.49 366.754 585.49 367.219C585.49 367.684 585.124 368.05 584.659 368.05Z" fill="#D7B18B"/>
<path d="M524.024 377.382C524.024 377.382 519.904 389.438 526.549 402.989C533.194 416.539 539.008 424.278 532.363 423.912C525.718 423.514 505.451 396.379 505.086 377.382H524.024Z" fill="#F6A86D"/>
<path d="M55.158 377.382C55.158 377.382 59.2778 389.438 52.6329 402.989C45.988 416.539 40.1737 424.278 46.8186 423.912C53.4635 423.514 73.7306 396.379 74.096 377.382H55.158Z" fill="#F6A86D"/>
<path d="M526.782 306.109H54.793V377.415H526.782V306.109Z" fill="#6F9AFC"/>
<path d="M524.689 377.382C524.689 377.382 552.697 376.518 557.98 338.092C563.263 299.666 587.217 280.868 578.28 253.567C569.343 226.234 528.742 229.655 524.689 257.852C520.635 286.016 524.689 377.382 524.689 377.382Z" fill="#6F9AFC"/>
<path d="M57.0187 377.382C57.0187 377.382 29.0104 376.518 23.7277 338.092C18.4449 299.666 -5.51001 280.868 3.42741 253.567C12.3648 226.234 52.9653 229.655 57.0187 257.852C61.0721 286.049 57.0187 377.382 57.0187 377.382Z" fill="#6F9AFC"/>
<path d="M474.021 340.483H95.626C95.1609 340.483 94.7954 340.118 94.7954 339.653C94.7954 339.188 95.1609 338.823 95.626 338.823H474.021C474.486 338.823 474.852 339.188 474.852 339.653C474.852 340.118 474.486 340.483 474.021 340.483Z" fill="#3F7DAE"/>
<path d="M465.881 279.174H87.4859C87.0207 279.174 86.6553 278.809 86.6553 278.344C86.6553 277.879 87.0207 277.513 87.4859 277.513H465.881C466.346 277.513 466.712 277.879 466.712 278.344C466.712 278.809 466.346 279.174 465.881 279.174Z" fill="#3F7DAE"/>
<path d="M82.0702 340.483C74.8272 340.483 69.777 338.657 67.1191 335.103C64.1289 331.118 65.192 326.335 65.3914 325.505C65.3914 323.18 64.9927 287.278 64.3282 273.76C63.6637 260.243 58.4807 254.996 58.4142 254.962C58.082 254.63 58.082 254.132 58.4142 253.8C58.7132 253.468 59.2448 253.468 59.5771 253.8C59.8097 254.032 65.2917 259.479 65.9894 273.727C66.6539 287.643 67.0526 325.272 67.0526 325.671V325.903C67.0526 325.903 65.7236 330.553 68.4481 334.206C70.807 337.328 75.392 338.922 82.0702 338.922C82.5353 338.922 82.9008 339.288 82.9008 339.753C82.9008 340.218 82.5353 340.583 82.0702 340.583V340.483Z" fill="#3F7DAE"/>
<path d="M497.877 340.484C497.411 340.484 497.046 340.118 497.046 339.653C497.046 339.188 497.411 338.823 497.877 338.823C504.555 338.823 509.14 337.229 511.499 334.107C514.223 330.453 512.927 325.87 512.927 325.804V325.571C512.927 325.206 513.293 287.577 513.957 273.628C514.655 259.38 520.137 253.933 520.37 253.7C520.702 253.368 521.233 253.402 521.532 253.7C521.865 254.033 521.831 254.564 521.532 254.863C521.466 254.929 516.283 260.177 515.618 273.661C514.954 287.178 514.588 323.08 514.555 325.405C514.788 326.269 515.818 331.018 512.828 335.004C510.136 338.59 505.119 340.384 497.877 340.384V340.484Z" fill="#3F7DAE"/>
<path d="M182.01 179.87C181.578 179.87 181.213 179.538 181.18 179.106C181.146 178.641 181.479 178.243 181.944 178.209C196.396 177.047 210.318 173.294 223.375 167.017C223.807 166.818 224.272 167.017 224.471 167.415C224.671 167.814 224.471 168.312 224.073 168.511C210.849 174.888 196.695 178.708 182.043 179.87C182.043 179.87 182.01 179.87 181.977 179.87H182.01Z" fill="#3F7DAE"/>
<path d="M69.1127 229.223C69.1127 229.223 69.013 229.223 68.9466 229.223C68.4814 229.157 68.2156 228.692 68.2821 228.26C69.8769 219.625 73 211.421 77.4853 203.882C77.7179 203.484 78.2162 203.351 78.6149 203.583C79.0136 203.816 79.1465 204.314 78.914 204.713C74.4951 212.086 71.4716 220.09 69.9101 228.559C69.8436 228.957 69.4782 229.223 69.0795 229.223H69.1127Z" fill="#3F7DAE"/>
<path d="M451.595 387.91C451.595 387.91 446.611 407.273 446.611 417.535C446.611 427.798 419.632 437.164 414.915 436.599C410.197 436.035 434.982 422.517 436.511 414.214C438.039 405.911 439.434 382.928 439.434 382.928L451.628 387.91H451.595Z" fill="#F9D1AC"/>
<path d="M403.186 380.604C403.186 380.604 398.202 399.966 398.202 410.229C398.202 420.491 377.703 438.459 373.018 437.894C368.3 437.33 386.574 415.211 388.102 406.908C389.631 398.605 391.026 375.622 391.026 375.622L403.219 380.604H403.186Z" fill="#F9D1AC"/>
<path d="M500.269 159.909C500.269 159.909 490.301 162.234 475.184 198.535C464.187 224.972 429.334 245.597 438.836 254.863C449.236 265.059 474.055 248.32 484.919 236.397C495.783 224.474 516.217 183.125 500.269 159.909Z" fill="#2E365C"/>
<path d="M518.044 253.7C518.044 253.7 532.496 296.511 481.397 312.585C455.581 320.689 463.987 386.881 448.471 392.361C445.049 393.589 436.444 395.184 434.617 389.571C428.171 369.876 424.749 327.796 432.955 307.803C443.488 282.13 494.953 253.7 494.953 253.7H518.044Z" fill="#F5BF6A"/>
<path d="M494.952 253.7C494.952 253.7 482.028 305.079 456.013 310.028C403.186 320.091 414.35 390.102 399.365 391.464C396.309 391.729 389.066 393.755 387.737 389.571C382.022 371.437 377.038 324.176 387.737 304.349C400.927 279.938 466.446 253.7 466.446 253.7H494.986H494.952Z" fill="#F5BF6A"/>
<path d="M523.858 157.186C523.858 157.186 573.562 177.047 579.775 214.444C585.988 251.84 552.464 232.212 533.892 243.67C528.509 246.991 528.177 258.915 518.077 261.405C507.943 263.896 461.429 263.896 455.216 258.915C451.395 255.859 446.445 251.276 471.197 216.403C481.43 201.989 448.039 212.318 498.807 157.618C498.807 157.618 519.207 155.094 523.858 157.186Z" fill="#2E365C"/>
<path d="M494.953 145.163C503.159 144.765 501.199 156.356 495.816 160.873C495.816 160.873 507.578 167.615 523.858 157.186C510.834 152.802 509.239 137.192 509.239 137.192L494.953 145.163Z" fill="#F9D1AC"/>
<path d="M486.945 100.46C486.945 100.46 477.908 101.888 480.068 118.727C480.068 118.727 480.433 122.845 478.307 126.93C478.307 126.93 476.779 130.118 480.899 130.749C485.882 131.513 482.925 140.182 487.543 143.403C494.122 147.986 506.116 142.473 508.143 140.049C510.169 137.624 516.349 102.519 486.945 100.46Z" fill="#F9D1AC"/>
<path d="M479.47 106.637C479.47 106.637 479.337 114.21 495.883 126.166C510.834 136.993 494.089 158.216 515.02 162.733C543.892 168.976 550.637 151.972 532.131 137.259C519.04 126.863 527.712 96.4745 510.003 91.3266C494.986 86.9758 477.111 94.5814 479.47 106.637Z" fill="#AB6352"/>
<path d="M485.583 135.465C485.151 135.465 484.786 135.133 484.752 134.668C484.752 134.203 485.085 133.838 485.55 133.805C486.912 133.738 487.743 132.144 487.743 132.111C487.942 131.712 488.474 131.546 488.839 131.746C489.238 131.945 489.404 132.443 489.205 132.842C489.138 132.941 487.942 135.332 485.583 135.432H485.55L485.583 135.465Z" fill="#F26041"/>
<path d="M483.357 121.284C483.124 122.778 483.689 124.074 484.62 124.24C485.55 124.406 486.513 123.31 486.746 121.815C486.978 120.321 486.414 119.025 485.483 118.859C484.553 118.693 483.59 119.789 483.357 121.284Z" fill="#292E4E"/>
<path d="M545.487 236.596C544.856 238.689 543.261 240.349 541.201 241.146C535.919 243.139 524.656 247.922 521.798 253.734C518.044 261.406 519.871 268.38 513.492 274.757C507.113 281.134 509.738 260.044 510.103 257.985C510.469 255.926 506.083 265.159 506.017 261.472C505.95 256.856 512.296 249.383 515.286 246.394C520.635 241.047 530.869 232.843 542.298 228.791C543.693 228.293 545.188 229.123 545.62 230.518C546.052 231.913 546.252 233.972 545.454 236.629L545.487 236.596Z" fill="#F9D1AC"/>
<path d="M364.048 150.909C364.048 150.909 363.848 150.909 363.749 150.843C330.225 138.222 302.848 137.989 302.582 137.989C302.117 137.989 301.751 137.624 301.751 137.159C301.751 136.694 302.117 136.329 302.582 136.329C302.848 136.329 330.524 136.561 364.347 149.315C364.779 149.481 364.978 149.946 364.845 150.378C364.712 150.71 364.413 150.909 364.081 150.909H364.048Z" fill="#3F7DAE"/>
<path d="M435.879 155.027C435.48 155.027 435.148 154.762 435.082 154.363C434.982 153.931 435.281 153.466 435.713 153.367C435.946 153.3 460.598 148.053 476.48 149.248C476.945 149.282 477.277 149.68 477.244 150.145C477.211 150.61 476.812 150.942 476.347 150.909C460.698 149.713 436.278 154.961 436.045 154.994C435.979 154.994 435.912 154.994 435.879 154.994V155.027Z" fill="#3F7DAE"/>
<path d="M429.5 319.859C429.035 319.859 428.67 319.46 428.703 318.995C428.769 315.574 430.696 312.519 432.225 310.028C436.81 302.688 441.528 295.083 447.475 288.507C454.219 281.067 461.562 276.085 469.303 273.694C469.768 273.561 470.2 273.794 470.333 274.259C470.466 274.69 470.234 275.155 469.768 275.288C462.326 277.58 455.216 282.429 448.704 289.636C442.856 296.079 438.172 303.618 433.62 310.892C432.125 313.316 430.397 316.039 430.331 318.995C430.331 319.46 429.965 319.792 429.5 319.792V319.859Z" fill="#D2A070"/>
<path d="M196.529 353.038C196.529 353.038 196.496 353.038 196.463 353.038C195.998 353.038 195.665 352.606 195.699 352.141C197.127 330.487 203.108 308.866 213.009 289.569C213.208 289.171 213.706 289.005 214.138 289.204C214.537 289.403 214.703 289.902 214.504 290.333C204.702 309.43 198.788 330.819 197.36 352.241C197.36 352.672 196.961 353.004 196.529 353.004V353.038Z" fill="#115A61"/>
<path d="M213.241 306.142C213.241 306.142 213.042 306.142 212.942 306.076C212.51 305.91 212.311 305.411 212.477 304.98C215.7 297.108 217.494 288.839 217.892 280.37C217.892 279.905 218.258 279.573 218.756 279.573C219.221 279.573 219.587 279.971 219.554 280.436C219.155 289.104 217.328 297.573 214.038 305.611C213.905 305.943 213.606 306.142 213.274 306.142H213.241Z" fill="#115A61"/>
<path d="M182.94 203.982C179.252 203.982 175.598 201.923 173.77 198.701C173.538 198.303 173.671 197.804 174.069 197.572C174.468 197.339 174.966 197.472 175.199 197.871C176.827 200.661 180.149 202.388 183.306 202.288C183.804 202.222 184.136 202.62 184.17 203.085C184.17 203.55 183.837 203.915 183.372 203.949C183.206 203.949 183.073 203.949 182.907 203.949L182.94 203.982Z" fill="#115A61"/>
<path d="M464.552 228.692C464.319 228.692 464.054 228.592 463.888 228.393C463.589 228.027 463.655 227.496 464.02 227.23C467.376 224.573 470.433 221.85 471.164 218.23C471.662 215.805 470.998 213.348 470.3 210.757C469.802 208.864 469.27 206.938 469.203 204.912C468.971 198.9 472.891 193.487 475.716 189.535C475.981 189.169 476.513 189.07 476.878 189.335C477.244 189.601 477.343 190.133 477.078 190.498C473.689 195.181 470.699 199.83 470.865 204.845C470.931 206.639 471.43 208.499 471.895 210.292C472.592 212.949 473.323 215.706 472.792 218.529C471.961 222.714 468.639 225.636 465.05 228.492C464.884 228.625 464.718 228.658 464.519 228.658L464.552 228.692Z" fill="#21294D"/>
<path d="M546.85 226.334C546.551 226.334 546.252 226.168 546.086 225.869C545.886 225.47 546.086 224.972 546.484 224.773C552.299 222.016 558.445 220.09 564.758 219.093C565.223 219.027 565.622 219.326 565.721 219.791C565.788 220.256 565.489 220.654 565.024 220.754C558.844 221.75 552.83 223.61 547.182 226.3C547.049 226.367 546.949 226.367 546.816 226.367L546.85 226.334Z" fill="#21294D"/>
<path d="M470.765 256.025C470.765 256.025 470.698 256.025 470.632 256.025L463.223 254.962C460.731 254.597 459.302 253.501 459.236 251.94C459.236 251.475 459.568 251.11 460.033 251.077C460.565 251.077 460.864 251.409 460.897 251.874C460.897 252.671 462.226 253.136 463.455 253.302L470.864 254.365C471.33 254.431 471.629 254.863 471.562 255.295C471.496 255.693 471.164 255.992 470.732 255.992L470.765 256.025Z" fill="#21294D"/>
<path d="M506.216 167.681C505.518 167.681 504.854 167.648 504.189 167.581C503.724 167.548 503.392 167.116 503.458 166.685C503.491 166.22 503.857 165.888 504.355 165.954C507.013 166.22 509.771 165.921 512.296 165.024C512.728 164.858 513.193 165.124 513.359 165.555C513.525 165.987 513.293 166.452 512.828 166.618C510.701 167.349 508.442 167.714 506.216 167.714V167.681Z" fill="#21294D"/>
<path d="M205.832 312.784C205.832 312.784 206.264 346.163 211.68 382.928C217.095 419.694 202.543 414.812 220.949 427.499C240.186 440.75 246.233 436.267 237.827 429.724C233.01 425.938 223.674 419.761 222.511 411.125C221.149 400.929 237.894 334.538 233.276 321.187C228.425 307.172 205.832 312.784 205.832 312.784Z" fill="#F9D1AC"/>
<path d="M166.261 312.784C166.261 312.784 166.693 346.163 172.109 382.928C177.524 419.694 162.972 414.812 181.378 427.499C200.616 440.75 206.662 436.267 198.257 429.724C193.439 425.938 184.103 419.761 182.94 411.125C181.578 400.929 198.323 334.538 193.705 321.187C188.854 307.172 166.261 312.784 166.261 312.784Z" fill="#F9D1AC"/>
<path d="M189.253 150.676C189.253 150.676 147.024 135.964 142.24 171.5C134.532 228.924 95.526 297.773 156.095 294.451C156.095 294.451 137.821 368.083 156.792 368.083C173.106 368.083 236.332 370.241 239.09 361.374C239.09 361.374 252.778 260.509 202.111 240.98C194.569 238.091 194.934 228.061 197.492 212.916C198.124 209.229 206.397 203.45 204.171 198.369C197.526 183.158 209.752 147.853 189.219 150.71L189.253 150.676Z" fill="#23686F"/>
<path d="M196.762 151.972C196.762 151.972 213.208 151.141 216.696 173.36C220.185 195.546 226.032 226.931 212.244 234.803C198.456 242.674 165.929 232.445 156.194 247.623C146.459 262.8 138.353 254.929 146.825 242.807C159.251 225.038 194.569 229.19 201.28 220.488C205.632 214.875 206.098 212.418 203.074 194.184C200.15 179.671 204.735 167.349 196.728 151.972H196.762Z" fill="#F5C89F"/>
<path d="M177.259 96.9394C177.259 96.9394 196.895 91.9244 206.629 104.744C214.038 114.475 207.294 117.431 218.457 128.823C226.963 137.558 213.773 148.318 202.41 137.491C189.386 125.103 177.259 96.9062 177.259 96.9062V96.9394Z" fill="#292E4E"/>
<path d="M184.17 106.172C184.17 106.172 197.792 100.227 204.935 112.782C211.879 125.004 210.616 131.779 209.653 136.728C208.523 142.506 207.128 146.625 203.44 147.023C199.785 147.422 182.375 147.787 175.133 125.934C167.89 104.08 184.203 106.139 184.203 106.139L184.17 106.172Z" fill="#F9D1AC"/>
<path d="M199.22 147.156C199.22 147.156 190.814 145.894 189.917 153.201C188.954 161.138 185.964 177.147 185.964 177.147L169.019 149.348C169.019 149.348 176.362 147.687 180.016 138.753C183.671 129.819 199.22 147.189 199.22 147.189V147.156Z" fill="#F9D1AC"/>
<path d="M197.293 97.8694C197.293 97.8694 199.652 110.59 187.293 123.177C179.418 131.181 192.609 133.539 192.642 144.466C192.642 155.426 163.404 155.326 160.414 140.746C157.224 125.17 166.893 122.812 164.932 114.575C163.005 106.338 168.753 90.6624 197.326 97.8694H197.293Z" fill="#292E4E"/>
<path d="M191.877 124.838C191.645 126.332 192.21 127.627 193.14 127.793C194.07 127.96 195.034 126.864 195.266 125.402C195.499 123.908 194.934 122.612 194.004 122.446C193.074 122.28 192.11 123.376 191.877 124.838Z" fill="#292E4E"/>
<path d="M204.47 121.45C204.237 122.944 204.802 124.24 205.732 124.406C206.663 124.572 207.626 123.476 207.859 121.981C208.091 120.487 207.526 119.191 206.596 119.025C205.666 118.859 204.702 119.955 204.47 121.45Z" fill="#292E4E"/>
<path d="M204.138 133.705C203.905 133.705 203.639 133.606 203.506 133.406C203.207 133.041 203.274 132.543 203.639 132.244C204.005 131.945 204.968 130.915 204.935 129.952C204.935 129.354 204.503 128.757 203.706 128.192C199.652 125.402 201.314 120.121 201.38 119.889C201.513 119.457 201.978 119.225 202.41 119.358C202.842 119.49 203.074 119.955 202.942 120.387C202.875 120.553 201.579 124.705 204.636 126.797C205.899 127.661 206.563 128.69 206.596 129.853C206.663 131.879 204.769 133.44 204.702 133.506C204.536 133.639 204.37 133.705 204.171 133.705H204.138Z" fill="#F0B683"/>
<path d="M203.473 137.923C200.583 137.923 199.121 136.395 199.021 136.296C198.722 135.964 198.722 135.432 199.054 135.133C199.387 134.834 199.918 134.834 200.217 135.166C200.217 135.166 201.978 136.927 205.5 135.964C205.965 135.831 206.397 136.096 206.53 136.561C206.663 137.026 206.397 137.458 205.932 137.591C205.001 137.823 204.171 137.923 203.44 137.923H203.473Z" fill="#F26041"/>
<path d="M171.876 416.041C171.876 416.041 168.454 425.905 172.374 427.3C180.98 430.322 184.501 435.835 195.067 436.499C205.134 437.13 204.503 433.245 200.848 429.027C190.017 416.539 185.565 418.532 184.701 414.048C183.837 409.598 178.853 413.284 178.089 415.974C177.325 418.665 172.374 414.314 171.843 416.041H171.876Z" fill="#292E4E"/>
<path d="M211.68 416.373C211.68 416.373 208.258 426.237 212.178 427.632C220.783 430.654 224.305 436.167 234.871 436.831C244.938 437.462 244.306 433.577 240.652 429.359C229.82 416.871 225.368 418.864 224.504 414.38C223.641 409.93 218.657 413.616 217.893 416.306C217.129 418.997 212.178 414.646 211.647 416.373H211.68Z" fill="#292E4E"/>
<path d="M381.756 416.074C381.756 416.074 382.288 413.749 385.378 415.476C388.468 417.203 392.787 409.797 396.442 412.388C400.063 414.978 401.691 418.764 398.302 421.587C394.913 424.41 375.909 441.382 371.457 445.068C367.038 448.755 364.446 442.179 375.178 429.691L381.756 416.074Z" fill="#2E365C"/>
<path d="M433.753 416.074C433.753 416.074 434.916 414.015 437.374 416.539C439.833 419.063 446.079 413.218 448.837 416.705C451.594 420.192 452.06 424.311 448.039 426.038C444.019 427.765 420.928 438.658 415.645 440.95C410.363 443.241 409.765 436.2 423.586 427.266L433.753 416.074Z" fill="#2E365C"/>
<path d="M237.429 186.28C229.787 189.302 229.92 188.206 235.402 184.719C240.884 181.232 239.555 176.914 226.564 185.815C221.315 189.402 219.122 189.834 216.464 190.664C216.231 190.531 214.437 191.627 214.205 191.494C212.543 191.859 210.184 194.051 208.59 194.55C196.961 204.148 179.285 216.204 173.704 212.351C165.763 206.871 173.504 140.115 152.54 152.171C152.54 152.171 139.283 157.153 142.273 187.442C145.263 217.732 156.46 235.334 173.704 234.836C185.731 234.504 200.184 216.802 211.945 204.281C214.271 201.79 217.228 200.03 220.484 199.1C227.162 197.207 237.96 193.653 244.971 188.904C255.769 181.63 245.07 183.291 237.429 186.313V186.28Z" fill="#F9D1AC"/>
<path d="M442.624 247.224C442.624 247.224 436.444 256.856 431.361 263.398C426.111 270.14 418.935 274.558 415.911 280.137C411.658 288.075 430.63 276.417 432.258 275.122C433.886 273.827 427.872 282.064 431.128 280.37C435.215 278.244 438.77 269.111 439.966 265.026C441.627 259.38 446.411 258.948 451.594 253.933C454.684 250.944 453.455 245.53 449.302 244.335C447.109 243.704 444.651 244.102 442.591 247.224H442.624Z" fill="#F9D1AC"/>
<g clip-path="url(#clip0_80_86)">
<path d="M201.043 237.578C201.081 237.435 201.122 237.285 201.153 237.139C201.405 236.051 202.138 235.628 203.194 235.445C211.722 233.943 220.243 232.414 228.772 230.888C233.332 230.077 237.888 229.256 242.448 228.445C242.599 228.419 242.749 228.394 242.895 228.359C243.815 228.099 244.539 228.327 245.148 229.115C245.979 230.188 246.902 231.196 247.781 232.229C255.814 241.719 263.846 251.21 271.879 260.7C274.449 263.74 277.025 266.765 279.598 269.798C279.696 269.91 279.791 270.029 279.896 270.144C280.376 270.684 280.499 271.294 280.202 271.959C280.099 272.185 279.993 272.418 279.89 272.643C279.588 272.676 279.286 272.685 278.99 272.745C275.988 273.359 272.991 273.982 269.993 274.606C266.111 275.42 262.233 276.244 258.354 277.051C254.522 277.844 250.68 278.616 246.848 279.408C244.634 279.868 242.435 280.375 240.218 280.8C239.44 280.949 238.621 280.925 237.822 280.958C237.579 280.965 237.319 280.907 237.087 280.843C236.441 280.669 235.895 280.344 235.461 279.813C233.98 278.036 232.471 276.29 231.011 274.504C229.357 272.487 227.745 270.427 226.124 268.389C224.904 266.861 223.687 265.326 222.467 263.798C221.212 262.232 219.947 260.67 218.689 259.111C217.617 257.781 216.542 256.458 215.467 255.135C214.297 253.692 213.128 252.25 211.968 250.803C210.868 249.437 209.771 248.064 208.664 246.695C207.497 245.245 206.324 243.81 205.164 242.363C204.127 241.071 203.103 239.767 202.05 238.494C201.767 238.153 201.399 237.88 201.068 237.579L201.043 237.578ZM234.437 271.444C235.342 271.741 236.029 271.764 236.735 271.629C238.562 271.27 240.386 270.942 242.209 270.572C245.46 269.913 248.702 269.235 251.952 268.559C255.542 267.815 259.131 267.053 262.714 266.306C263.156 266.211 263.6 266.133 264.043 266.037C265.323 265.766 266.602 265.519 267.867 265.201C268.877 264.942 268.811 264.229 268.543 263.546C268.47 263.369 268.302 263.222 268.177 263.075C267.057 261.718 265.937 260.361 264.805 259.016C262.672 256.475 260.53 253.939 258.388 251.403C256.729 249.442 255.065 247.496 253.401 245.549C251.439 243.256 249.464 240.975 247.502 238.682C247.334 238.493 247.189 238.289 247.031 238.095C246.139 237.008 245.222 235.944 244.356 234.833C243.747 234.045 243.015 233.88 242.089 234.113C241.264 234.319 240.414 234.44 239.571 234.589C236.012 235.229 232.449 235.86 228.893 236.492C225.631 237.072 222.364 237.642 219.106 238.232C216.586 238.691 214.066 239.149 211.554 239.652C209.731 240.022 209.38 240.658 210.696 242.322C211.069 242.796 211.468 243.247 211.841 243.722C213.286 245.527 214.731 247.331 216.179 249.129C217.346 250.579 218.529 252.009 219.686 253.464C221.472 255.697 223.243 257.95 225.026 260.191C226.619 262.193 228.219 264.198 229.832 266.191C231.034 267.679 232.239 269.16 233.47 270.618C233.784 270.986 234.217 271.26 234.437 271.444Z" fill="#CDCFD0"/>
<path d="M201.043 237.578C201.375 237.879 201.742 238.152 202.026 238.493C203.076 239.773 204.1 241.077 205.14 242.362C206.307 243.812 207.479 245.247 208.639 246.694C209.739 248.06 210.836 249.433 211.943 250.802C213.11 252.251 214.28 253.694 215.443 255.134C216.518 256.457 217.59 257.787 218.665 259.11C219.929 260.672 221.187 262.231 222.442 263.797C223.662 265.325 224.879 266.86 226.099 268.388C227.727 270.429 229.343 272.481 230.986 274.503C232.447 276.289 233.963 278.038 235.436 279.812C235.873 280.336 236.42 280.661 237.063 280.842C237.302 280.909 237.554 280.964 237.797 280.957C238.597 280.924 239.416 280.948 240.194 280.799C242.411 280.374 244.61 279.867 246.824 279.407C250.656 278.615 254.494 277.85 258.33 277.05C262.209 276.243 266.089 275.412 269.969 274.605C272.966 273.981 275.964 273.358 278.965 272.744C279.262 272.684 279.563 272.675 279.866 272.642C279.484 273.68 279.081 274.71 278.739 275.755C278.458 276.617 277.907 277.06 277.023 277.226C275.102 277.592 273.184 278.016 271.269 278.408C260.447 280.645 249.62 282.873 238.798 285.11C237.711 285.331 236.624 285.552 235.523 285.204C235.234 285.094 234.955 284.978 234.669 284.861C233.902 284.442 233.34 283.812 232.794 283.14C227.116 276.084 221.436 269.036 215.756 261.988C210.859 255.919 205.973 249.846 201.077 243.778C200.728 243.346 200.388 242.917 200.042 242.479C199.602 241.92 199.499 241.326 199.783 240.648C200.215 239.629 200.611 238.597 201.022 237.569L201.043 237.578Z" fill="#B8BABC"/>
<path d="M273.493 269.603C273.421 269.426 273.253 269.279 273.12 269.128C272.001 267.771 265.944 260.364 264.812 259.018C262.68 256.478 260.537 253.942 258.395 251.406C256.737 249.445 255.072 247.498 253.408 245.552C251.446 243.259 249.471 240.978 247.509 238.685C247.342 238.496 247.196 238.291 247.038 238.098C246.147 237.011 245.229 235.947 244.363 234.836C243.754 234.048 243.022 233.883 242.096 234.116C241.272 234.322 240.422 234.443 239.578 234.592C236.019 235.232 232.456 235.862 228.9 236.495C225.638 237.075 222.371 237.645 219.113 238.235C216.593 238.694 214.073 239.152 211.561 239.655C209.738 240.025 209.387 240.66 210.704 242.325C211.077 242.799 211.475 243.25 211.848 243.725C213.294 245.529 214.739 247.334 216.187 249.132C217.354 250.581 218.536 252.012 219.693 253.466C221.479 255.7 223.25 257.953 225.033 260.193C226.626 262.196 228.226 264.201 229.839 266.194C231.042 267.682 237.186 275.206 238.423 276.666C238.737 277.035 239.171 277.309 239.39 277.493C240.295 277.79 240.982 277.813 241.688 277.678C243.516 277.318 245.34 276.99 247.163 276.621C250.414 275.962 253.656 275.283 256.905 274.608C260.496 273.863 264.084 273.102 267.667 272.355C268.109 272.26 268.554 272.182 268.996 272.086C270.276 271.815 271.555 271.568 272.821 271.25C273.831 270.991 273.765 270.278 273.496 269.595L273.493 269.603Z" fill="#E1E0DE"/>
<path d="M229.562 243.086C229.79 243.595 230.362 243.939 230.836 243.847L235.306 242.969C235.78 242.877 235.986 242.384 235.759 241.875C235.325 240.888 235.625 239.91 236.472 239.581L236.018 238.562C235.729 237.912 235.009 237.479 234.399 237.601L227.221 239.016C226.614 239.131 226.356 239.761 226.645 240.41L227.1 241.429C228.07 241.404 229.123 242.114 229.56 243.093L229.562 243.086Z" fill="#0058EF"/>
<path d="M238.838 241.34C238.529 240.634 237.767 240.135 237.137 240.225C236.804 240.271 236.541 240.46 236.418 240.761C236.287 241.058 236.315 241.417 236.478 241.769C236.675 242.185 236.703 242.609 236.562 242.978C236.412 243.368 236.077 243.637 235.647 243.721L231.184 244.602C230.755 244.686 230.258 244.578 229.807 244.306C229.39 244.055 229.068 243.683 228.896 243.269C228.75 242.915 228.48 242.604 228.126 242.403C227.78 242.204 227.411 242.129 227.089 242.212C226.485 242.362 226.244 243.056 226.553 243.763C226.605 243.907 227.833 247.078 231.177 246.977L231.233 247.155L231.243 247.192L231.558 248.208C231.632 248.426 231.854 248.603 232.075 248.588C232.075 248.588 232.109 248.585 232.127 248.583C232.307 248.545 232.398 248.372 232.343 248.169L232.007 247.079L231.997 247.042L231.941 246.864L236.858 245.899L236.951 246.067L236.972 246.1L237.577 247.136C237.686 247.327 237.913 247.447 238.093 247.408C238.111 247.407 238.121 247.402 238.141 247.393C238.332 247.326 238.386 247.098 238.261 246.884L237.697 245.914L237.676 245.882L237.584 245.714C240.476 244.586 238.927 241.474 238.859 241.349L238.838 241.34Z" fill="#0058EF"/>
<path d="M264.843 263.238C264.709 263.369 264.627 263.52 264.512 263.559C264.184 263.681 263.845 263.766 263.498 263.849C254.609 265.841 245.726 267.837 236.839 269.822C236.547 269.892 236.247 269.943 235.948 269.986C235.67 270.02 235.41 269.92 235.386 269.638C235.373 269.5 235.572 269.261 235.723 269.212C236.245 269.039 236.789 268.916 237.326 268.791C244.002 267.3 250.686 265.812 257.362 264.321C259.372 263.874 261.383 263.403 263.398 262.966C263.779 262.88 264.18 262.893 264.573 262.903C264.657 262.901 264.736 263.106 264.843 263.238Z" fill="#2A2E4E"/>
<path d="M254.331 249.865C254.126 250.01 254.023 250.128 253.884 250.165C253.448 250.288 253.006 250.383 252.56 250.486C243.915 252.423 235.273 254.353 226.631 256.284C226.142 256.394 225.644 256.46 225.148 256.502C225.055 256.507 224.881 256.333 224.859 256.217C224.838 256.101 224.919 255.867 225.006 255.834C225.425 255.672 225.857 255.539 226.295 255.434C230.123 254.566 233.953 253.715 237.778 252.854C242.689 251.754 247.596 250.645 252.511 249.556C252.991 249.45 253.496 249.428 253.993 249.428C254.093 249.426 254.196 249.697 254.317 249.859L254.331 249.865Z" fill="#2A2E4E"/>
<path d="M258.839 256.016C258.67 256.457 258.649 256.772 258.506 256.841C258.101 257.034 257.661 257.146 257.223 257.252C250.007 258.875 242.786 260.489 235.566 262.103C233.998 262.454 232.423 262.803 230.848 263.152C230.505 263.227 230.156 263.317 229.812 263.326C229.67 263.33 229.409 263.147 229.395 263.033C229.379 262.878 229.528 262.621 229.665 262.566C230.029 262.415 230.432 262.338 230.822 262.247C236.617 260.94 242.408 259.64 248.202 258.333C251.249 257.645 254.293 256.965 257.336 256.285C257.724 256.202 258.111 256.143 258.835 256.006L258.839 256.016Z" fill="#2A2E4E"/>
<path d="M262.235 259.82C261.695 259.952 261.215 260.083 260.732 260.196C251.99 262.171 243.244 264.135 234.498 266.1C234.107 266.19 233.71 266.295 233.31 266.324C233.158 266.332 232.912 266.196 232.842 266.053C232.708 265.778 232.901 265.554 233.154 265.477C233.633 265.329 234.123 265.219 234.62 265.111C239.83 263.944 245.042 262.795 250.252 261.628C253.639 260.873 257.032 260.103 260.423 259.34C260.865 259.245 261.309 259.125 261.752 259.071C262.143 259.022 262.279 259.273 262.238 259.812L262.235 259.82Z" fill="#2A2E4E"/>
<path d="M256.566 253.066C256.408 253.262 256.337 253.425 256.22 253.471C255.896 253.604 255.563 253.716 255.219 253.792C246.282 255.799 237.346 257.807 228.402 259.812C228.065 259.89 227.709 259.911 227.371 259.93C227.302 259.937 227.182 259.816 227.168 259.745C227.145 259.611 227.135 259.4 227.216 259.34C227.399 259.187 227.632 259.053 227.86 258.999C229.181 258.686 230.511 258.392 231.834 258.096C239.453 256.395 247.064 254.691 254.679 252.997C255.169 252.886 255.666 252.778 256.158 252.727C256.271 252.712 256.418 252.934 256.566 253.066Z" fill="#2A2E4E"/>
<path d="M222.9 253.139C222.757 252.993 222.636 252.921 222.639 252.848C222.633 252.713 222.657 252.499 222.74 252.456C223.048 252.3 223.379 252.171 223.713 252.1C225.627 251.666 227.547 251.259 229.459 250.832C236.328 249.291 243.2 247.743 250.072 246.194C250.515 246.099 250.958 245.979 251.406 245.935C251.561 245.92 251.811 246.066 251.876 246.198C252.016 246.484 251.78 246.667 251.538 246.756C251.26 246.857 250.956 246.914 250.664 246.984C241.826 248.972 232.998 250.955 224.163 252.935C223.728 253.033 223.29 253.073 222.91 253.134L222.9 253.139Z" fill="#2A2E4E"/>
</g>
<g clip-path="url(#clip1_80_86)">
<path d="M509.028 192.162C507.489 190.345 507.319 188.133 507.415 185.92C507.475 184.56 508.85 183.812 510.462 184.036C512.707 184.35 514.112 185.898 515.39 187.579C515.977 188.357 516.483 189.209 516.958 190.061C517.731 191.444 518.371 191.317 519.151 190.039C520.333 188.11 521.425 186.114 523.573 185.008C524.874 184.335 526.1 184.231 527.423 184.844C528.88 185.516 529.616 186.638 529.333 188.23C529.073 189.71 529.214 191.324 528.062 192.543C521.715 192.595 515.383 191.84 509.028 192.154V192.162Z" fill="#DD5661"/>
<path d="M509.028 192.163C515.382 191.849 521.715 192.611 528.062 192.551C527.728 194.039 526.94 195.309 526.145 196.58C520.979 196.333 515.821 196.072 510.648 196.191C510.113 194.846 509.013 193.732 509.028 192.155V192.163Z" fill="#F5BF6A"/>
<path d="M510.648 196.199C515.821 196.072 520.979 196.341 526.145 196.588C526.13 198.815 524.643 200.168 523.238 201.573C519.916 200.332 516.542 200.818 513.16 201.229C511.77 199.832 510.7 198.269 510.648 196.199Z" fill="#50AE57"/>
<path d="M513.16 201.222C516.534 200.811 519.916 200.317 523.239 201.566C522.198 204.189 520.057 206.043 518.564 208.353C518.095 209.078 517.597 208.966 517.181 208.233C515.836 205.901 514.112 203.786 513.168 201.222H513.16Z" fill="#4F66A2"/>
</g>
<defs>
<clipPath id="clip0_80_86">
<rect width="86.3215" height="56.1813" fill="white" transform="translate(209.579 215.098) rotate(20.9757)"/>
</clipPath>
<clipPath id="clip1_80_86">
<rect width="22" height="24.8387" fill="white" transform="translate(507.393 184)"/>
</clipPath>
</defs>
</svg>
